<svg xmlns="http://www.w3.org/2000/svg" xmlns:xlink="http://www.w3.org/1999/xlink" width="1022" height="466" viewBox="0 0 1022 466">
  <defs>
    <linearGradient id="linear-gradient" x1="0.455" y1="0.975" x2="0.547" y2="-0.106" gradientUnits="objectBoundingBox">
      <stop offset="0" stop-color="#ffc5ae"/>
      <stop offset="1" stop-color="#ea8b6a"/>
    </linearGradient>
    <linearGradient id="linear-gradient-2" x1="1.578" y1="0.415" x2="-0.116" y2="0.543" xlink:href="#linear-gradient"/>
    <linearGradient id="linear-gradient-3" x1="0.371" y1="1.049" x2="0.703" y2="-0.592" xlink:href="#linear-gradient"/>
    <linearGradient id="linear-gradient-4" x1="0.481" y1="0.893" x2="0.532" y2="-0.459" xlink:href="#linear-gradient"/>
    <linearGradient id="linear-gradient-5" x1="0.531" y1="1.066" x2="0.464" y2="-0.346" xlink:href="#linear-gradient"/>
    <linearGradient id="linear-gradient-6" x1="0.044" y1="1.044" x2="0.876" y2="-0.385" xlink:href="#linear-gradient"/>
    <clipPath id="clip-Under_Contruction">
      <rect width="1022" height="466"/>
    </clipPath>
  </defs>
  <g id="Under_Contruction" data-name="Under Contruction" clip-path="url(#clip-Under_Contruction)">
    <g id="Group_4630" data-name="Group 4630" transform="translate(-364 -520.108)">
      <g id="DESIGNED_BY_FREEPIK" data-name="DESIGNED BY FREEPIK" transform="translate(364 854.379)">
        <ellipse id="Ellipse_359" data-name="Ellipse 359" cx="510.774" cy="65.509" rx="510.774" ry="65.509" fill="#f9f9fb"/>
      </g>
      <g id="Group_4189" data-name="Group 4189" transform="translate(1016.019 583.73)">
        <path id="Path_7435" data-name="Path 7435" d="M651.794,400.23l-16.93-49.662L606.593,360.2,548.855,190.774,484.482,212.7l.193.576L463.913,302.9l-29.542,127.5L451.6,468.455l60.785-20.713,22.127-7.541,24.631-8.4,20.113,59.024,64.373-21.932L623.521,409.87ZM534.745,384.689l-14.6,4.977L492.177,399.2l19.088-94.769,1.793-7.864,29.161,85.576Z" transform="translate(-434.371 -190.773)" fill="#4a88e9"/>
        <path id="Path_7436" data-name="Path 7436" d="M610.025,409.872,630.137,468.9l-41-17.539L523.6,215.236l-24.039,81.328-11.131,46.064L450.416,302.9l20.764-89.624-.195-.576,64.373-21.932L593.1,360.2l28.272-9.633L638.3,400.23Z" transform="translate(-420.874 -190.774)" fill="#f9f9fb" opacity="0.204"/>
      </g>
      <g id="Group_4192" data-name="Group 4192" transform="translate(504.56 632.775)">
        <g id="Group_4190" data-name="Group 4190" transform="translate(0 37.441)">
          <path id="Path_7439" data-name="Path 7439" d="M178.914,270.082a11.421,11.421,0,0,1-3.4-.311c-.619-.26-2.5-1.046-18.927-30.368l2.953-1.655c6.137,10.951,15.438,26.889,17.408,28.927,1.788.289,11.612-.4,20.319-1.272l.339,3.369C192.122,269.321,183.71,270.082,178.914,270.082Z" transform="translate(-156.582 -237.747)" fill="#4a88e9"/>
        </g>
        <path id="Path_7440" data-name="Path 7440" d="M233.875,269.79v.981s-.9,18.614-14.829,17.81c-.035,0-.068-.009-.1-.009-8.617-.558-19.281-4.579-26.434-7.567-4.494-1.878-7.61-3.351-7.958-3.292-.906.144,10.555,47.817,10.4,50.533a4.53,4.53,0,0,1-.228,1.153c-.812,2.581-3.647,5.678-5.349,5.932-.179.026-.543-.3-1.059-.948-5.181-6.44-25.69-43.855-26.248-56.069-.6-13.424,6.186-21.509,15.389-23.048,6.788-1.136,26.638,1.6,36.584,3.113,3.53.543,5.805.924,5.805.924Z" transform="translate(-151.996 -185.796)" fill="#002259"/>
        <g id="Group_4191" data-name="Group 4191" transform="translate(28.099 72.582)">
          <path id="Path_7441" data-name="Path 7441" d="M186.7,319.662a4.53,4.53,0,0,1-.228,1.153c-.812,2.581-3.647,5.678-5.349,5.932-.179.026-.543-.3-1.059-.948,7.3-10.3-11.774-60.453-7.626-60.6,2.047-.068,6.577,3.41,11.817,7.219-4.494-1.878-7.61-3.351-7.958-3.292C175.394,269.272,186.856,316.946,186.7,319.662Z" transform="translate(-171.844 -249.795)" opacity="0.25" style="mix-blend-mode: overlay;isolation: isolate"/>
          <path id="Path_7442" data-name="Path 7442" d="M210.113,268.245v.981s-.9,18.614-14.829,17.81c2.742-2.193,3.25-6.052,3.047-10.725-.238-5.409-5.24-14.669-8.05-19.478,3.53.543,5.805.924,5.805.924Z" transform="translate(-156.333 -256.833)" opacity="0.25" style="mix-blend-mode: overlay;isolation: isolate"/>
        </g>
        <path id="Path_7443" data-name="Path 7443" d="M198.755,240.291a3.9,3.9,0,0,0-.771,1.8s-.017-.026-.05-.085c-.162-.287-.746-1.3-1.5-2.463-1.27-1.965-3.021-4.4-4.08-4.7-1.7-.464-6.231,5.257-12.351,5.715a10.056,10.056,0,0,1-1.226.026c-6.739-.306-13.882-9.863-8.144-21.12a7.438,7.438,0,0,0,6.129,4.224,3.552,3.552,0,0,1-2.607-3.623c7.337,1.3,11.156-4.224,17.495-2.209s5.934,5.833,5.934,5.833,4.826-1.913,6.332,4.122C205.127,232.639,200.616,237.395,198.755,240.291Z" transform="translate(-146.526 -217.411)" fill="#002259"/>
        <path id="Path_7444" data-name="Path 7444" d="M192.694,234.055a12.889,12.889,0,0,1-2.362,4.527,6.648,6.648,0,0,1-5.13,2.795c-4.283-.1-8.541-5.849-10.438-8.77,6.12-.458,10.649-6.179,12.351-5.715,1.059.3,2.81,2.734,4.08,4.7C191.949,232.759,192.532,233.768,192.694,234.055Z" transform="translate(-141.287 -209.458)" fill="url(#linear-gradient)"/>
        <path id="Path_7445" data-name="Path 7445" d="M191.769,232.139s-3.217,7.348-4.426,5.739c-.652-.873-2.532-1.447-4.122-1.8a12.89,12.89,0,0,0,2.362-4.527c.033.059.05.085.05.085a3.9,3.9,0,0,1,.771-1.8A14.3,14.3,0,0,0,191.769,232.139Z" transform="translate(-134.175 -206.958)" fill="url(#linear-gradient-2)"/>
        <path id="Path_7446" data-name="Path 7446" d="M212.275,293.643c-5.13-.753-19-15.836-19-22.328a20.459,20.459,0,0,0-.271-3.04c-1.066-6.755-4.969-16.657-6.593-23.659-1.889-8.142.829-11.189.829-11.189,6.315-10.861,20.606,10.664,28.757,27.925l.009.007c2.742,5.816,4.553,11.216,4.723,14.831C221.31,288.412,217.4,294.4,212.275,293.643Z" transform="translate(-132.055 -206.409)" fill="#f7ea48"/>
        <path id="Path_7447" data-name="Path 7447" d="M208.973,289.738c-5.129-.753-19-15.836-19-22.328a20.461,20.461,0,0,0-.271-3.04l-.035-2.894,5.028-26.342s6.941,8.252,8.05,23.031,17.373,18,9.959-.711c2.742,5.816,4.553,11.216,4.723,14.831C218.008,284.507,214.1,290.493,208.973,289.738Z" transform="translate(-128.753 -202.504)" opacity="0.25" style="mix-blend-mode: overlay;isolation: isolate"/>
        <path id="Path_7448" data-name="Path 7448" d="M201.213,259.231a1.82,1.82,0,0,1-.687.3c-2.377.661-9.311.56-12.2-.007a4.746,4.746,0,0,1-1-.289c-1.9-.906,0-3.123-.6-7.043s-2.108-15.389,3.725-18.909c6.1-3.682,10.555,10.259,10.758,17.2S202.524,258.122,201.213,259.231Z" transform="translate(-131.751 -204.576)" fill="#f7ea48"/>
        <path id="Path_7449" data-name="Path 7449" d="M212.246,247.26s-.278,16.955-3.511,24.953v.017c-1.009,2.489-2.3,4.106-3.971,4.073-7.017-.153-22.777-16.819-24.217-17.429s-8.6.457-8.372-.6,3.023-3.393,6.035-4.52,2.489-.457,21.873,8.449c-.263-1.71-.153-9.108-.068-13.3.009-.635.026-1.193.035-1.65C202.935,247.82,209.869,247.921,212.246,247.26Z" transform="translate(-143.471 -192.309)" fill="url(#linear-gradient-3)"/>
        <path id="Path_7450" data-name="Path 7450" d="M191.638,305.715c.492,3.023-19.806,23.685-18.749,18.259s7.39-22.635,7.39-22.635c1.7-.254,4.537-3.351,5.349-5.932C187.287,298.284,191.224,303.209,191.638,305.715Z" transform="translate(-142.898 -151.804)" fill="#ef5772"/>
        <path id="Path_7451" data-name="Path 7451" d="M211.454,268.353s-32.583-6.118-39.02-3.159,11.774,54.449,11.774,54.449" transform="translate(-144.406 -177.898)" fill="none" stroke="#fff" stroke-miterlimit="10" stroke-width="0.46" opacity="0.25" style="mix-blend-mode: overlay;isolation: isolate"/>
        <path id="Path_7452" data-name="Path 7452" d="M196.013,272.214c.617-3.4,1.083-13.3-.628-17.208-1.151-2.642-5.433-4.91-8.092-6.1.009-.635.026-1.193.035-1.65,2.885.567,9.819.668,12.2.007C199.524,247.26,199.246,264.216,196.013,272.214Z" transform="translate(-130.749 -192.309)" opacity="0.25" style="mix-blend-mode: overlay;isolation: isolate"/>
      </g>
      <g id="Group_4193" data-name="Group 4193" transform="translate(1029.348 522.823)">
        <path id="Path_7453" data-name="Path 7453" d="M508.678,204.987a93.828,93.828,0,0,1-3.471,10.184c-2.438,6.273-6.12,14.821-11.546,26.739-.134,6.052-2.064,44.66-2.589,53.547-.068,1.084-.11,1.727-.127,1.812-.077.39-1.473,1.134-3,1.515-1.438.372-2.979.423-3.64-.457-1.362-1.812-10.563-38.32-11.012-46.921s-.906-6.636,9.65-40.874c-2.565,1.2-19.189.753-19.189.753s3.047,41.933,3.064,42.238a.992.992,0,0,1-.085.287,7.638,7.638,0,0,1-1.464,2.5c-.3.3-.6.466-.88.381a4.565,4.565,0,0,1-1.118-1c-3.193-3.386-11.944-14.779-16.685-25.4-5.577-12.52-6.941-21.271-1.659-30.017s32.031-9.419,32.031-9.419c1.692.473,5.586.939,9.438,1.854,1.134.261,2.268.574,3.334.93,5.859,1.948,17.023,4.419,19.426,3.031C509.695,198.528,509.813,200.713,508.678,204.987Z" transform="translate(-441.61 -129.801)" fill="#003145"/>
        <path id="Path_7454" data-name="Path 7454" d="M513.83,193.047c-1.059.6-7.847.921-16.151-2.244.042,1.464.228,3.765.44,6.382.33,4.122.711,9.024.617,12.6-.05,2.548-.346,4.426-1.057,4.859a.052.052,0,0,1-.035.017c-1.278.736-5.019.381-9.132-.4-2.659-.508-5.468-1.193-7.864-1.88-.873-.254-1.694-.506-2.43-.753-4.706-1.574-10.581-2.174-12.772-2.784-.551-.153-.864-.3-.88-.466-.068-.83,2.04-2.708,3.029-4.673.12-.245.28-.609.458-1.075a83.494,83.494,0,0,0,2.673-8.431c.365-1.464.5-2.429.179-2.259-.981.525-6.788,11.384-7.466,11.384a12.808,12.808,0,0,1-2.793-1.607c-2.336-1.583-5.273-3.911-5.341-5.021a.423.423,0,0,1,.136-.379c1.362-1.287,11.765-18.784,15.539-22.518a16.76,16.76,0,0,1,8.906-4.316,23.929,23.929,0,0,1,6.7.779c7.483,1.871,14.348,6.593,18.259,8.93,5.052,3.014,8.523,2.184,9.8,2.937S514.88,192.437,513.83,193.047Z" transform="translate(-430.094 -147.79)" fill="#b56183"/>
        <path id="Path_7456" data-name="Path 7456" d="M476.885,170.258c-.271,2.894-1.294,6.01-4.445,5.765-4.443-.348-5.4-3.979-5.6-5.673a15.513,15.513,0,0,1,3.344-.871A23.928,23.928,0,0,1,476.885,170.258Z" transform="translate(-420.389 -147.79)" fill="#002259" opacity="0.25" style="mix-blend-mode: overlay;isolation: isolate"/>
        <path id="Path_7457" data-name="Path 7457" d="M478.74,173.856a12.4,12.4,0,0,0-2.268-4.682c-1.226,2-5.958,3.023-9.607,3.285a14.626,14.626,0,0,1-3.97-.11c-2.565-9.963,5.435-14.33,9.887-14.636s8.447,3.007,7.238,8.059C484.015,169.708,478.74,173.856,478.74,173.856Z" transform="translate(-424.124 -157.694)" fill="#002259"/>
        <path id="Path_7458" data-name="Path 7458" d="M476.7,168.611a16.962,16.962,0,0,1-1.193,2.9H475.5c-1,1.8-2.675,3.4-5.579,2.226a3.1,3.1,0,0,1-.3-.136,8.616,8.616,0,0,1-4.36-4.969,11.472,11.472,0,0,1-.44-1.421c3.649-.261,8.381-1.287,9.607-3.285l.2.228A13.021,13.021,0,0,1,476.7,168.611Z" transform="translate(-422.084 -152.448)" fill="url(#linear-gradient-4)"/>
        <path id="Path_7459" data-name="Path 7459" d="M474.125,172.84c-.447,2.793-5.052,2.64-5.551.829-.263-.939-.56-1.845-.788-2.506-.2-.617-.355-1.015-.355-1.015v-.009a3.1,3.1,0,0,0,.3.136c2.9,1.177,4.579-.423,5.579-2.226h.007c-.313.626.525,1.412.8,2.894A5.412,5.412,0,0,1,474.125,172.84Z" transform="translate(-419.891 -148.983)" fill="url(#linear-gradient-5)"/>
        <path id="Path_7460" data-name="Path 7460" d="M466.35,235.466c-.449,3.471-18.4,17.049-18.1,14.636s9.438-23.175,9.438-23.175a4.564,4.564,0,0,0,1.118,1c.9.263,2.057-2.04,2.344-2.878C463.564,228.078,466.757,232.369,466.35,235.466Z" transform="translate(-436.026 -101.037)" fill="#002259"/>
        <path id="Path_7461" data-name="Path 7461" d="M465.659,278.8c-4.224-9.057,0-28.262,0-28.262,1.355,1.812,6.485-.306,6.637-1.059.017-.085.059-.727.127-1.812,0,0,.676,9.2,1.48,17S469.882,287.848,465.659,278.8Z" transform="translate(-422.961 -82.011)" fill="#002259"/>
        <path id="Path_7462" data-name="Path 7462" d="M474.933,204.994c-2.565,1.2-19.189.753-19.189.753s3.047,41.933,3.064,42.238a.991.991,0,0,1-.085.287,7.636,7.636,0,0,1-1.464,2.5c-3.066-14.346-9.176-41.857-4.3-46.58,6.24-6.035,23.134-7.645,23.379-6.323S474.933,204.994,474.933,204.994Z" transform="translate(-433.598 -124.263)" opacity="0.25" style="mix-blend-mode: overlay;isolation: isolate"/>
        <path id="Path_7463" data-name="Path 7463" d="M461.715,196.266a2.005,2.005,0,0,0-.3,1.211c.365,1.4-1.565,19-.863,20.813s1.108,7.543.7,11.167-7.948,5.831-7.948,2.716.906-10.462,1.21-13.28-2.513-23.177-1.76-26c.492-1.836,2.379-4.951,3.631-6.89.668-1.04,1.16-1.753,1.16-1.753.11,1.769,7.517,6.628,8.134,6.628A33.54,33.54,0,0,0,461.715,196.266Z" transform="translate(-432.34 -135.351)" fill="url(#linear-gradient-6)"/>
        <path id="Path_7464" data-name="Path 7464" d="M488.215,204.14a15.679,15.679,0,0,1-9.675-4.316c-3.031-3.031-8.083-5.842-12.6-7.965,1.134.261,2.268.574,3.334.93,5.859,1.948,17.023,4.419,19.426,3.031C489.232,197.681,489.349,199.866,488.215,204.14Z" transform="translate(-421.147 -128.954)" opacity="0.25" style="mix-blend-mode: overlay;isolation: isolate"/>
        <path id="Path_7465" data-name="Path 7465" d="M484.037,204.06c-2.438,6.273-6.12,14.821-11.546,26.739-.134,6.052-2.064,44.66-2.589,53.547-.068,1.084-.11,1.727-.127,1.812-.077.39-1.473,1.134-3,1.515.348-13.019-.111-41.358,2.092-49.789C471.5,227.795,483.3,205.448,484.037,204.06Z" transform="translate(-420.44 -118.691)" opacity="0.25" style="mix-blend-mode: overlay;isolation: isolate"/>
        <path id="Path_7466" data-name="Path 7466" d="M478.207,207.059c-.873-.254-1.694-.506-2.43-.753-4.706-1.574-10.581-2.174-12.772-2.784-.551-.153-.863-.3-.88-.466-.068-.83,2.04-2.708,3.029-4.673s4.292-12.3,3.31-11.765S461.675,198,461,198a12.809,12.809,0,0,1-2.793-1.607c.144-.247.3-.492.482-.753,3.614-5.334,9.548-11.97,10.556-17.7.8-4.224,2.014-1.81,1.812,3.623C470.868,186.44,470.6,201.371,478.207,207.059Z" transform="translate(-427.652 -142.471)" fill="#002259" opacity="0.25" style="mix-blend-mode: overlay;isolation: isolate"/>
        <path id="Path_7467" data-name="Path 7467" d="M482.506,206.215a.052.052,0,0,1-.035.017c-1.278.736-5.019.381-9.132-.4,7.356-7.372,3.344-27.341,4.494-26.316a29.6,29.6,0,0,0,4.673,2.861C482.657,187.813,484.85,204.785,482.506,206.215Z" transform="translate(-414.921 -139.367)" fill="#002259" opacity="0.25" style="mix-blend-mode: overlay;isolation: isolate"/>
        <path id="Path_7468" data-name="Path 7468" d="M463.967,190.882a33.542,33.542,0,0,0-3.97,5.384c-.026-.449-.059-.864-.1-1.235-.228-2.158-3.59-6.847-5.223-9.024.668-1.04,1.16-1.753,1.16-1.753C455.943,186.023,463.35,190.882,463.967,190.882Z" transform="translate(-430.622 -135.351)" fill="#fff" opacity="0.153"/>
        <path id="Path_7469" data-name="Path 7469" d="M474.636,164.157c-1.812,4-7.136,4.47-9.372,4.478a11.472,11.472,0,0,1-.44-1.421c3.649-.261,8.381-1.287,9.607-3.285Z" transform="translate(-422.084 -152.448)" opacity="0.25" style="mix-blend-mode: overlay;isolation: isolate"/>
        <path id="Path_7470" data-name="Path 7470" d="M474.118,170.943a3.226,3.226,0,0,1-1.27.576,7.777,7.777,0,0,1-5.061-.357c-.2-.617-.355-1.015-.355-1.015v-.009a3.1,3.1,0,0,0,.3.136c2.9,1.177,4.579-.423,5.579-2.226h.007C473,168.675,473.838,169.461,474.118,170.943Z" transform="translate(-419.891 -148.983)" opacity="0.25" style="mix-blend-mode: overlay;isolation: isolate"/>
        <path id="Path_7471" data-name="Path 7471" d="M490.135,177.446c.085-.061.173-.114.252-.168,3.92-2.51,6.835-.276,7.111.418s.083,3.449-3.986,9.756c-.079.125-.162.245-.247.377,0,0-3.782,8.619-5.627,12.737,1.143,4.47,2.353,4.327.827,6.643s-5.26,3.55-6.332,3.2-1.276-6.542-.606-8.074S486.083,180.217,490.135,177.446Z" transform="translate(-409.356 -142.196)" fill="url(#linear-gradient-6)"/>
        <path id="Path_7472" data-name="Path 7472" d="M486.164,177.279c3.92-2.51,6.835-.276,7.111.418s.083,3.449-3.986,9.756c.729-2.154,1.5-5.117,1.07-7.092A3.684,3.684,0,0,0,486.164,177.279Z" transform="translate(-405.133 -142.196)" fill="#fff" opacity="0.153"/>
      </g>
      <g id="Group_4194" data-name="Group 4194" transform="translate(786.731 652.986)">
        <path id="Path_7473" data-name="Path 7473" d="M513.257,376.808l-9.7-49.542q-10.768-54.967-41.519-80.2-30.766-25.229-76-16.37T321.881,274.31q-18.918,34.765-8.118,89.919l9.734,49.73q10.729,54.774,41.485,80.008a80.223,80.223,0,0,0,28.593,15.219q21.343,6.258,47.587,1.118a113.731,113.731,0,0,0,24.819-7.687q25.952-11.63,39.156-35.9Q524.06,431.955,513.257,376.808Zm-60.555,66.5q-4.979,15.237-21.052,18.386-16.645,3.262-27.071-9.353-7.109-8.6-12.154-25.521V426.8a.462.462,0,0,1-.018-.059q-2.336-7.846-4.214-17.487L374.574,339.7q-4.789-27.4-.035-42.307T395.558,279.3q12.4-2.439,21.4,4.172h.007a31.365,31.365,0,0,1,5.732,5.553q10.5,12.989,16.243,42.34l13.179,67.3Q457.679,428.066,452.7,443.306Z" transform="translate(-309.838 -228.389)" fill="#4a88e9"/>
        <path id="Path_7474" data-name="Path 7474" d="M419.837,427.432c2.793,4.3,6.509,33.537,8.414,50.017a113.731,113.731,0,0,1-24.819,7.687q-26.242,5.129-47.587-1.118a42.252,42.252,0,0,0,1.574-4.089c8.88-27.13-2.219-76.079-2.725-78.28q5.04,16.924,12.154,25.521,10.437,12.618,27.071,9.353,16.074-3.148,21.052-18.386t-.585-44.634l-13.179-67.3q-5.739-29.341-16.243-42.34a31.364,31.364,0,0,0-5.732-5.553c21.407,4.2,38.794,70.477,46.04,102.449S433.117,407.523,419.837,427.432Z" transform="translate(-272.105 -203.221)" fill="#dcdfe5" opacity="0.202"/>
      </g>
      <g id="Group_4196" data-name="Group 4196" transform="translate(551.413 593.43)">
        <g id="Group_4195" data-name="Group 4195">
          <path id="Path_7476" data-name="Path 7476" d="M394.052,207.233l-65.128-11.191-.1.584L185,358.555l-2.972,40.476,20.629,3.548,35.7,6.137,47.926,8.236,4.555.779L287.414,437.7l-1.593,9.235-5.238,30.514,42.389,7.289,22.737,3.9,10.259-59.717,28.61,4.909,8.635-50.255L364.6,378.666Zm-81.3,82.978-13.282,77.265-15.887-2.734-34.747-5.967,19.24-22.965,4.4-5.257,36.685-43.787,5.19-5.875Z" transform="translate(-182.029 -196.042)" fill="#4a88e9"/>
          <path id="Path_7479" data-name="Path 7479" d="M300.209,373.554l28.61,4.909-8.634,50.255-28.61-4.91-10.259,59.718-22.736-3.9,39.961-249.351,31.116-28.153Z" transform="translate(-117.636 -190.929)" fill="#002259" opacity="0.25" style="mix-blend-mode: overlay;isolation: isolate"/>
        </g>
      </g>
      <g id="Group_4197" data-name="Group 4197" transform="translate(606.449 520.109)">
        <path id="Path_7480" data-name="Path 7480" d="M347.244,167.986a11.767,11.767,0,1,1-11.767-11.767A11.769,11.769,0,0,1,347.244,167.986Z" transform="translate(-117.887 -156.219)" fill="#002259"/>
        <path id="Path_7485" data-name="Path 7485" d="M342.134,165.431a9.212,9.212,0,1,1-9.212-9.212A9.213,9.213,0,0,1,342.134,165.431Z" transform="translate(165.789 236.305)" fill="#079fea"/>
        <path id="Path_7486" data-name="Path 7486" d="M336.4,162.565a6.346,6.346,0,1,1-6.346-6.346A6.347,6.347,0,0,1,336.4,162.565Z" transform="translate(-289.023 248.599)" fill="#002259"/>
        <path id="Path_7481" data-name="Path 7481" d="M569.6,249.2a11.767,11.767,0,1,1-11.767-11.767A11.767,11.767,0,0,1,569.6,249.2Z" transform="translate(69.156 -87.902)" fill="#0057ff"/>
        <path id="Path_7482" data-name="Path 7482" d="M235.455,202.541a11.767,11.767,0,1,1-11.767-11.767A11.767,11.767,0,0,1,235.455,202.541Z" transform="translate(-211.921 -127.152)" fill="#ef5772"/>
        <path id="Path_7483" data-name="Path 7483" d="M340.853,397.983a11.767,11.767,0,1,1-11.767-11.765A11.767,11.767,0,0,1,340.853,397.983Z" transform="translate(-123.263 37.251)" fill="#ef5772"/>
        <circle id="Ellipse_357" data-name="Ellipse 357" cx="4.538" cy="4.538" r="4.538" transform="translate(555.19 42.65)" fill="#ef5772"/>
        <circle id="Ellipse_358" data-name="Ellipse 358" cx="4.538" cy="4.538" r="4.538" transform="translate(208.513 113.32)" fill="#079fea"/>
        <path id="Path_7484" data-name="Path 7484" d="M260.508,188.929a4.539,4.539,0,1,1-4.539-4.538A4.538,4.538,0,0,1,260.508,188.929Z" transform="translate(-178.686 -132.522)" fill="#0057ff"/>
      </g>
    </g>
  </g>
</svg>
